<svg width="82" height="82" viewBox="0 0 82 82" fill="none" xmlns="http://www.w3.org/2000/svg">
<path d="M0.183289 16.9858C0.708892 15.6718 2.20019 15.0327 3.5142 15.5583L12.5199 19.1606C14.3527 19.8937 16.3973 19.8937 18.2301 19.1606L23.4291 17.081C26.4837 15.8591 29.8913 15.8591 32.946 17.081L38.1449 19.1606C39.9777 19.8937 42.0223 19.8937 43.8551 19.1606L49.0541 17.081C52.1087 15.8591 55.5163 15.8591 58.571 17.081L63.7699 19.1606C65.6027 19.8937 67.6473 19.8937 69.4801 19.1606L78.4858 15.5583C79.7998 15.0327 81.2911 15.6718 81.8167 16.9858C82.3423 18.2998 81.7032 19.7911 80.3892 20.3167L71.3835 23.919C68.3288 25.1409 64.9212 25.1409 61.8666 23.919L56.6676 21.8394C54.8348 21.1063 52.7902 21.1063 50.9574 21.8394L45.7585 23.919C42.7038 25.1409 39.2962 25.1409 36.2416 23.919L31.0426 21.8394C29.2098 21.1063 27.1652 21.1063 25.3324 21.8394L20.1335 23.919C17.0788 25.1409 13.6712 25.1409 10.6166 23.919L1.61082 20.3167C0.296814 19.7911 -0.342314 18.2998 0.183289 16.9858ZM0.183289 32.3608C0.708892 31.0468 2.20019 30.4077 3.5142 30.9333L12.5199 34.5356C14.3527 35.2687 16.3973 35.2687 18.2301 34.5356L23.4291 32.456C26.4837 31.2341 29.8913 31.2341 32.946 32.456L38.1449 34.5356C39.9777 35.2687 42.0223 35.2687 43.8551 34.5356L49.0541 32.456C52.1087 31.2341 55.5163 31.2341 58.571 32.456L63.7699 34.5356C65.6027 35.2687 67.6473 35.2687 69.4801 34.5356L78.4858 30.9333C79.7998 30.4077 81.2911 31.0468 81.8167 32.3608C82.3423 33.6748 81.7032 35.1661 80.3892 35.6917L71.3835 39.294C68.3288 40.5159 64.9212 40.5159 61.8666 39.294L56.6676 37.2144C54.8348 36.4813 52.7902 36.4813 50.9574 37.2144L45.7585 39.294C42.7038 40.5159 39.2962 40.5159 36.2416 39.294L31.0426 37.2144C29.2098 36.4813 27.1652 36.4813 25.3324 37.2144L20.1335 39.294C17.0788 40.5159 13.6712 40.5159 10.6166 39.294L1.61082 35.6917C0.296814 35.1661 -0.342314 33.6748 0.183289 32.3608ZM0.183289 47.7358C0.708892 46.4218 2.20019 45.7827 3.5142 46.3083L12.5199 49.9106C14.3527 50.6437 16.3973 50.6437 18.2301 49.9106L23.4291 47.831C26.4837 46.6091 29.8913 46.6091 32.946 47.831L38.1449 49.9106C39.9777 50.6437 42.0223 50.6437 43.8551 49.9106L49.0541 47.831C52.1087 46.6091 55.5163 46.6091 58.571 47.831L63.7699 49.9106C65.6027 50.6437 67.6473 50.6437 69.4801 49.9106L78.4858 46.3083C79.7998 45.7827 81.2911 46.4218 81.8167 47.7358C82.3423 49.0498 81.7032 50.5411 80.3892 51.0667L71.3835 54.669C68.3288 55.8909 64.9212 55.8909 61.8666 54.669L56.6676 52.5894C54.8348 51.8563 52.7902 51.8563 50.9574 52.5894L45.7585 54.669C42.7038 55.8909 39.2962 55.8909 36.2416 54.669L31.0426 52.5894C29.2098 51.8563 27.1652 51.8563 25.3324 52.5894L20.1335 54.669C17.0788 55.8909 13.6712 55.8909 10.6166 54.669L1.61082 51.0667C0.296814 50.5411 -0.342314 49.0498 0.183289 47.7358ZM0.183289 63.1108C0.708892 61.7968 2.20019 61.1577 3.5142 61.6833L12.5199 65.2856C14.3527 66.0187 16.3973 66.0187 18.2301 65.2856L23.4291 63.206C26.4837 61.9841 29.8913 61.9841 32.946 63.206L38.1449 65.2856C39.9777 66.0187 42.0223 66.0187 43.8551 65.2856L49.0541 63.206C52.1087 61.9841 55.5163 61.9841 58.571 63.206L63.7699 65.2856C65.6027 66.0187 67.6473 66.0187 69.4801 65.2856L78.4858 61.6833C79.7998 61.1577 81.2911 61.7968 81.8167 63.1108C82.3423 64.4248 81.7032 65.9161 80.3892 66.4417L71.3835 70.044C68.3288 71.2659 64.9212 71.2659 61.8666 70.044L56.6676 67.9644C54.8348 67.2313 52.7902 67.2313 50.9574 67.9644L45.7585 70.044C42.7038 71.2659 39.2962 71.2659 36.2416 70.044L31.0426 67.9644C29.2098 67.2313 27.1652 67.2313 25.3324 67.9644L20.1335 70.044C17.0788 71.2659 13.6712 71.2659 10.6166 70.044L1.61082 66.4417C0.296814 65.9161 -0.342314 64.4248 0.183289 63.1108Z" fill="white"/>
</svg>
